<mxfile host="Electron" modified="2024-05-16T08:07:06.189Z" agent="Mozilla/5.0 (Windows NT 10.0; Win64; x64) AppleWebKit/537.36 (KHTML, like Gecko) draw.io/21.2.8 Chrome/112.0.5615.165 Electron/24.2.0 Safari/537.36" etag="AjdHkbwQDeXnglU_4hGm" version="21.2.8" type="device" pages="2">
  <diagram name="第 1 页" id="hZHNZMP5M_iRD0ooPnMY">
    <mxGraphModel dx="668" dy="251" grid="0" gridSize="10" guides="1" tooltips="1" connect="1" arrows="1" fold="1" page="0" pageScale="1" pageWidth="827" pageHeight="1169" math="0" shadow="0">
      <root>
        <mxCell id="0" />
        <mxCell id="1" parent="0" />
        <mxCell id="0nwP4JBlI1utq1KSn3Qp-8" value="" style="rounded=1;whiteSpace=wrap;html=1;fontSize=16;fillColor=#f0f0f0;arcSize=1;strokeColor=none;" parent="1" vertex="1">
          <mxGeometry x="580" y="460" width="800" height="530" as="geometry" />
        </mxCell>
        <mxCell id="soQnK4VK0Xm1NqBGlBOO-3" value="&lt;b style=&quot;border-color: var(--border-color); color: rgb(0, 0, 0); font-family: Helvetica; font-size: 16px; font-style: normal; font-variant-ligatures: normal; font-variant-caps: normal; letter-spacing: normal; orphans: 2; text-align: left; text-indent: 0px; text-transform: none; widows: 2; word-spacing: 0px; -webkit-text-stroke-width: 0px; text-decoration-thickness: initial; text-decoration-style: initial; text-decoration-color: initial;&quot;&gt;&lt;span style=&quot;border-color: var(--border-color); font-family: &amp;quot;Courier New&amp;quot;; color: rgb(68, 68, 68);&quot; lang=&quot;EN-US&quot;&gt;user&amp;nbsp;&amp;nbsp;&lt;/span&gt;&lt;/b&gt;&lt;span style=&quot;border-color: var(--border-color); font-size: 16px; font-style: normal; font-variant-ligatures: normal; font-variant-caps: normal; font-weight: 400; letter-spacing: normal; orphans: 2; text-align: left; text-indent: 0px; text-transform: none; widows: 2; word-spacing: 0px; -webkit-text-stroke-width: 0px; text-decoration-thickness: initial; text-decoration-style: initial; text-decoration-color: initial; font-family: &amp;quot;Courier New&amp;quot;; color: rgb(68, 68, 68);&quot; lang=&quot;EN-US&quot;&gt;nginx;&lt;br style=&quot;border-color: var(--border-color);&quot;&gt;&lt;b style=&quot;border-color: var(--border-color);&quot;&gt;worker_processes&amp;nbsp;&amp;nbsp;&lt;/b&gt;auto;&lt;br style=&quot;border-color: var(--border-color);&quot;&gt;&lt;b style=&quot;border-color: var(--border-color);&quot;&gt;error_log&amp;nbsp;&amp;nbsp;&lt;/b&gt;/var/log/nginx/error.log&lt;span&gt;&amp;nbsp;&lt;/span&gt;&lt;/span&gt;&lt;span style=&quot;border-color: var(--border-color); font-size: 16px; font-style: normal; font-variant-ligatures: normal; font-variant-caps: normal; font-weight: 400; letter-spacing: normal; orphans: 2; text-align: left; text-indent: 0px; text-transform: none; widows: 2; word-spacing: 0px; -webkit-text-stroke-width: 0px; text-decoration-thickness: initial; text-decoration-style: initial; text-decoration-color: initial; font-family: &amp;quot;Courier New&amp;quot;; color: rgb(120, 169, 96);&quot; lang=&quot;EN-US&quot;&gt;notice&lt;/span&gt;&lt;span style=&quot;border-color: var(--border-color); font-size: 16px; font-style: normal; font-variant-ligatures: normal; font-variant-caps: normal; font-weight: 400; letter-spacing: normal; orphans: 2; text-align: left; text-indent: 0px; text-transform: none; widows: 2; word-spacing: 0px; -webkit-text-stroke-width: 0px; text-decoration-thickness: initial; text-decoration-style: initial; text-decoration-color: initial; font-family: &amp;quot;Courier New&amp;quot;; color: rgb(68, 68, 68);&quot; lang=&quot;EN-US&quot;&gt;;&lt;br style=&quot;border-color: var(--border-color);&quot;&gt;&lt;b style=&quot;border-color: var(--border-color);&quot;&gt;pid&amp;nbsp;&amp;nbsp;&lt;/b&gt;/var/run/nginx.pid;&lt;br style=&quot;border-color: var(--border-color);&quot;&gt;&lt;br style=&quot;border-color: var(--border-color);&quot;&gt;&lt;br style=&quot;border-color: var(--border-color);&quot;&gt;&lt;/span&gt;&lt;b style=&quot;border-color: var(--border-color); color: rgb(0, 0, 0); font-family: Helvetica; font-size: 16px; font-style: normal; font-variant-ligatures: normal; font-variant-caps: normal; letter-spacing: normal; orphans: 2; text-align: left; text-indent: 0px; text-transform: none; widows: 2; word-spacing: 0px; -webkit-text-stroke-width: 0px; text-decoration-thickness: initial; text-decoration-style: initial; text-decoration-color: initial;&quot;&gt;&lt;span style=&quot;border-color: var(--border-color); font-family: &amp;quot;Courier New&amp;quot;; color: rgb(136, 0, 0);&quot; lang=&quot;EN-US&quot;&gt;events&lt;/span&gt;&lt;/b&gt;&lt;span style=&quot;border-color: var(--border-color); font-size: 16px; font-style: normal; font-variant-ligatures: normal; font-variant-caps: normal; font-weight: 400; letter-spacing: normal; orphans: 2; text-align: left; text-indent: 0px; text-transform: none; widows: 2; word-spacing: 0px; -webkit-text-stroke-width: 0px; text-decoration-thickness: initial; text-decoration-style: initial; text-decoration-color: initial; font-family: &amp;quot;Courier New&amp;quot;; color: rgb(68, 68, 68);&quot; lang=&quot;EN-US&quot;&gt;&lt;span&gt;&amp;nbsp;&lt;/span&gt;{&lt;br style=&quot;border-color: var(--border-color);&quot;&gt;&lt;span style=&quot;border-color: var(--border-color);&quot;&gt;&amp;nbsp;&amp;nbsp;&amp;nbsp;&lt;span&gt;&amp;nbsp;&lt;/span&gt;&lt;/span&gt;&lt;b style=&quot;border-color: var(--border-color);&quot;&gt;worker_connections&lt;/b&gt;&lt;span style=&quot;border-color: var(--border-color);&quot;&gt;&amp;nbsp;&lt;span&gt;&amp;nbsp;&lt;/span&gt;&lt;/span&gt;&lt;/span&gt;&lt;span style=&quot;border-color: var(--border-color); font-family: Helvetica; font-size: 16px; font-style: normal; font-variant-ligatures: normal; font-variant-caps: normal; font-weight: 400; letter-spacing: normal; orphans: 2; text-align: left; text-indent: 0px; text-transform: none; widows: 2; word-spacing: 0px; -webkit-text-stroke-width: 0px; text-decoration-thickness: initial; text-decoration-style: initial; text-decoration-color: initial; color: rgb(136, 0, 0);&quot; lang=&quot;EN-US&quot;&gt;1024&lt;/span&gt;&lt;span style=&quot;border-color: var(--border-color); font-family: Helvetica; font-size: 16px; font-style: normal; font-variant-ligatures: normal; font-variant-caps: normal; font-weight: 400; letter-spacing: normal; orphans: 2; text-align: left; text-indent: 0px; text-transform: none; widows: 2; word-spacing: 0px; -webkit-text-stroke-width: 0px; text-decoration-thickness: initial; text-decoration-style: initial; text-decoration-color: initial; color: rgb(68, 68, 68);&quot; lang=&quot;EN-US&quot;&gt;;&lt;br style=&quot;border-color: var(--border-color);&quot;&gt;}&lt;br style=&quot;border-color: var(--border-color);&quot;&gt;&lt;br style=&quot;border-color: var(--border-color);&quot;&gt;&lt;br style=&quot;border-color: var(--border-color);&quot;&gt;&lt;/span&gt;&lt;b style=&quot;border-color: var(--border-color); color: rgb(0, 0, 0); font-family: Helvetica; font-size: 16px; font-style: normal; font-variant-ligatures: normal; font-variant-caps: normal; letter-spacing: normal; orphans: 2; text-align: left; text-indent: 0px; text-transform: none; widows: 2; word-spacing: 0px; -webkit-text-stroke-width: 0px; text-decoration-thickness: initial; text-decoration-style: initial; text-decoration-color: initial;&quot;&gt;&lt;span style=&quot;border-color: var(--border-color); font-family: &amp;quot;Courier New&amp;quot;; color: rgb(136, 0, 0);&quot; lang=&quot;EN-US&quot;&gt;http&lt;/span&gt;&lt;/b&gt;&lt;span style=&quot;border-color: var(--border-color); font-size: 16px; font-style: normal; font-variant-ligatures: normal; font-variant-caps: normal; font-weight: 400; letter-spacing: normal; orphans: 2; text-align: left; text-indent: 0px; text-transform: none; widows: 2; word-spacing: 0px; -webkit-text-stroke-width: 0px; text-decoration-thickness: initial; text-decoration-style: initial; text-decoration-color: initial; font-family: &amp;quot;Courier New&amp;quot;; color: rgb(68, 68, 68);&quot; lang=&quot;EN-US&quot;&gt;&lt;span&gt;&amp;nbsp;&lt;/span&gt;{&lt;br style=&quot;border-color: var(--border-color);&quot;&gt;&lt;span style=&quot;border-color: var(--border-color);&quot;&gt;&amp;nbsp;&amp;nbsp;&amp;nbsp;&lt;span&gt;&amp;nbsp;&lt;/span&gt;&lt;/span&gt;&lt;b style=&quot;border-color: var(--border-color);&quot;&gt;include&amp;nbsp;&amp;nbsp;&lt;/b&gt;/etc/nginx/mime.types;&lt;br style=&quot;border-color: var(--border-color);&quot;&gt;&lt;span style=&quot;border-color: var(--border-color);&quot;&gt;&amp;nbsp;&amp;nbsp;&amp;nbsp;&lt;span&gt;&amp;nbsp;&lt;/span&gt;&lt;/span&gt;&lt;b style=&quot;border-color: var(--border-color);&quot;&gt;default_type&amp;nbsp;&amp;nbsp;&lt;/b&gt;application/octet-stream;&lt;br style=&quot;border-color: var(--border-color);&quot;&gt;&lt;span style=&quot;border-color: var(--border-color);&quot;&gt;&amp;nbsp;&amp;nbsp;&amp;nbsp;&lt;span&gt;&amp;nbsp;&lt;/span&gt;&lt;/span&gt;&lt;b style=&quot;border-color: var(--border-color);&quot;&gt;log_format&amp;nbsp;&amp;nbsp;&lt;/b&gt;main&lt;span style=&quot;border-color: var(--border-color);&quot;&gt;&amp;nbsp;&lt;span&gt;&amp;nbsp;&lt;/span&gt;&lt;/span&gt;&lt;/span&gt;&lt;span style=&quot;border-color: var(--border-color); font-size: 16px; font-style: normal; font-variant-ligatures: normal; font-variant-caps: normal; font-weight: 400; letter-spacing: normal; orphans: 2; text-align: left; text-indent: 0px; text-transform: none; widows: 2; word-spacing: 0px; -webkit-text-stroke-width: 0px; text-decoration-thickness: initial; text-decoration-style: initial; text-decoration-color: initial; font-family: &amp;quot;Courier New&amp;quot;; color: rgb(136, 0, 0);&quot; lang=&quot;EN-US&quot;&gt;&#39;&lt;/span&gt;&lt;span style=&quot;border-color: var(--border-color); font-size: 16px; font-style: normal; font-variant-ligatures: normal; font-variant-caps: normal; font-weight: 400; letter-spacing: normal; orphans: 2; text-align: left; text-indent: 0px; text-transform: none; widows: 2; word-spacing: 0px; -webkit-text-stroke-width: 0px; text-decoration-thickness: initial; text-decoration-style: initial; text-decoration-color: initial; font-family: &amp;quot;Courier New&amp;quot;; color: rgb(188, 96, 96);&quot; lang=&quot;EN-US&quot;&gt;$remote_addr&lt;/span&gt;&lt;span style=&quot;border-color: var(--border-color); font-size: 16px; font-style: normal; font-variant-ligatures: normal; font-variant-caps: normal; font-weight: 400; letter-spacing: normal; orphans: 2; text-align: left; text-indent: 0px; text-transform: none; widows: 2; word-spacing: 0px; -webkit-text-stroke-width: 0px; text-decoration-thickness: initial; text-decoration-style: initial; text-decoration-color: initial; font-family: &amp;quot;Courier New&amp;quot;; color: rgb(136, 0, 0);&quot; lang=&quot;EN-US&quot;&gt;&lt;span&gt;&amp;nbsp;&lt;/span&gt;-&lt;span&gt;&amp;nbsp;&lt;/span&gt;&lt;/span&gt;&lt;span style=&quot;border-color: var(--border-color); font-size: 16px; font-style: normal; font-variant-ligatures: normal; font-variant-caps: normal; font-weight: 400; letter-spacing: normal; orphans: 2; text-align: left; text-indent: 0px; text-transform: none; widows: 2; word-spacing: 0px; -webkit-text-stroke-width: 0px; text-decoration-thickness: initial; text-decoration-style: initial; text-decoration-color: initial; font-family: &amp;quot;Courier New&amp;quot;; color: rgb(188, 96, 96);&quot; lang=&quot;EN-US&quot;&gt;$remote_user&lt;/span&gt;&lt;span style=&quot;border-color: var(--border-color); font-size: 16px; font-style: normal; font-variant-ligatures: normal; font-variant-caps: normal; font-weight: 400; letter-spacing: normal; orphans: 2; text-align: left; text-indent: 0px; text-transform: none; widows: 2; word-spacing: 0px; -webkit-text-stroke-width: 0px; text-decoration-thickness: initial; text-decoration-style: initial; text-decoration-color: initial; font-family: &amp;quot;Courier New&amp;quot;; color: rgb(136, 0, 0);&quot; lang=&quot;EN-US&quot;&gt;&lt;span&gt;&amp;nbsp;&lt;/span&gt;[&lt;/span&gt;&lt;span style=&quot;border-color: var(--border-color); font-size: 16px; font-style: normal; font-variant-ligatures: normal; font-variant-caps: normal; font-weight: 400; letter-spacing: normal; orphans: 2; text-align: left; text-indent: 0px; text-transform: none; widows: 2; word-spacing: 0px; -webkit-text-stroke-width: 0px; text-decoration-thickness: initial; text-decoration-style: initial; text-decoration-color: initial; font-family: &amp;quot;Courier New&amp;quot;; color: rgb(188, 96, 96);&quot; lang=&quot;EN-US&quot;&gt;$time_local&lt;/span&gt;&lt;span style=&quot;border-color: var(--border-color); font-size: 16px; font-style: normal; font-variant-ligatures: normal; font-variant-caps: normal; font-weight: 400; letter-spacing: normal; orphans: 2; text-align: left; text-indent: 0px; text-transform: none; widows: 2; word-spacing: 0px; -webkit-text-stroke-width: 0px; text-decoration-thickness: initial; text-decoration-style: initial; text-decoration-color: initial; font-family: &amp;quot;Courier New&amp;quot;; color: rgb(136, 0, 0);&quot; lang=&quot;EN-US&quot;&gt;] &quot;&lt;/span&gt;&lt;span style=&quot;border-color: var(--border-color); font-size: 16px; font-style: normal; font-variant-ligatures: normal; font-variant-caps: normal; font-weight: 400; letter-spacing: normal; orphans: 2; text-align: left; text-indent: 0px; text-transform: none; widows: 2; word-spacing: 0px; -webkit-text-stroke-width: 0px; text-decoration-thickness: initial; text-decoration-style: initial; text-decoration-color: initial; font-family: &amp;quot;Courier New&amp;quot;; color: rgb(188, 96, 96);&quot; lang=&quot;EN-US&quot;&gt;$request&lt;/span&gt;&lt;span style=&quot;border-color: var(--border-color); font-size: 16px; font-style: normal; font-variant-ligatures: normal; font-variant-caps: normal; font-weight: 400; letter-spacing: normal; orphans: 2; text-align: left; text-indent: 0px; text-transform: none; widows: 2; word-spacing: 0px; -webkit-text-stroke-width: 0px; text-decoration-thickness: initial; text-decoration-style: initial; text-decoration-color: initial; font-family: &amp;quot;Courier New&amp;quot;; color: rgb(136, 0, 0);&quot; lang=&quot;EN-US&quot;&gt;&quot; &#39;&lt;/span&gt;&lt;span style=&quot;border-color: var(--border-color); font-size: 16px; font-style: normal; font-variant-ligatures: normal; font-variant-caps: normal; font-weight: 400; letter-spacing: normal; orphans: 2; text-align: left; text-indent: 0px; text-transform: none; widows: 2; word-spacing: 0px; -webkit-text-stroke-width: 0px; text-decoration-thickness: initial; text-decoration-style: initial; text-decoration-color: initial; font-family: &amp;quot;Courier New&amp;quot;; color: rgb(68, 68, 68);&quot; lang=&quot;EN-US&quot;&gt;&lt;br style=&quot;border-color: var(--border-color);&quot;&gt;&lt;span style=&quot;border-color: var(--border-color);&quot;&gt;&amp;nbsp;&amp;nbsp;&amp;nbsp;&amp;nbsp;&amp;nbsp;&amp;nbsp;&amp;nbsp;&amp;nbsp;&amp;nbsp;&amp;nbsp;&amp;nbsp;&amp;nbsp;&amp;nbsp;&amp;nbsp;&amp;nbsp;&amp;nbsp;&amp;nbsp;&amp;nbsp;&amp;nbsp;&amp;nbsp;&amp;nbsp;&lt;span&gt;&amp;nbsp;&lt;/span&gt;&lt;/span&gt;&lt;/span&gt;&lt;span style=&quot;border-color: var(--border-color); font-size: 16px; font-style: normal; font-variant-ligatures: normal; font-variant-caps: normal; font-weight: 400; letter-spacing: normal; orphans: 2; text-align: left; text-indent: 0px; text-transform: none; widows: 2; word-spacing: 0px; -webkit-text-stroke-width: 0px; text-decoration-thickness: initial; text-decoration-style: initial; text-decoration-color: initial; font-family: &amp;quot;Courier New&amp;quot;; color: rgb(136, 0, 0);&quot; lang=&quot;EN-US&quot;&gt;&#39;&lt;/span&gt;&lt;span style=&quot;border-color: var(--border-color); font-size: 16px; font-style: normal; font-variant-ligatures: normal; font-variant-caps: normal; font-weight: 400; letter-spacing: normal; orphans: 2; text-align: left; text-indent: 0px; text-transform: none; widows: 2; word-spacing: 0px; -webkit-text-stroke-width: 0px; text-decoration-thickness: initial; text-decoration-style: initial; text-decoration-color: initial; font-family: &amp;quot;Courier New&amp;quot;; color: rgb(188, 96, 96);&quot; lang=&quot;EN-US&quot;&gt;$status&lt;/span&gt;&lt;span style=&quot;border-color: var(--border-color); font-size: 16px; font-style: normal; font-variant-ligatures: normal; font-variant-caps: normal; font-weight: 400; letter-spacing: normal; orphans: 2; text-align: left; text-indent: 0px; text-transform: none; widows: 2; word-spacing: 0px; -webkit-text-stroke-width: 0px; text-decoration-thickness: initial; text-decoration-style: initial; text-decoration-color: initial; font-family: &amp;quot;Courier New&amp;quot;; color: rgb(136, 0, 0);&quot; lang=&quot;EN-US&quot;&gt;&lt;span&gt;&amp;nbsp;&lt;/span&gt;&lt;/span&gt;&lt;span style=&quot;border-color: var(--border-color); font-size: 16px; font-style: normal; font-variant-ligatures: normal; font-variant-caps: normal; font-weight: 400; letter-spacing: normal; orphans: 2; text-align: left; text-indent: 0px; text-transform: none; widows: 2; word-spacing: 0px; -webkit-text-stroke-width: 0px; text-decoration-thickness: initial; text-decoration-style: initial; text-decoration-color: initial; font-family: &amp;quot;Courier New&amp;quot;; color: rgb(188, 96, 96);&quot; lang=&quot;EN-US&quot;&gt;$body_bytes_sent&lt;/span&gt;&lt;span style=&quot;border-color: var(--border-color); font-size: 16px; font-style: normal; font-variant-ligatures: normal; font-variant-caps: normal; font-weight: 400; letter-spacing: normal; orphans: 2; text-align: left; text-indent: 0px; text-transform: none; widows: 2; word-spacing: 0px; -webkit-text-stroke-width: 0px; text-decoration-thickness: initial; text-decoration-style: initial; text-decoration-color: initial; font-family: &amp;quot;Courier New&amp;quot;; color: rgb(136, 0, 0);&quot; lang=&quot;EN-US&quot;&gt;&lt;span&gt;&amp;nbsp;&lt;/span&gt;&quot;&lt;/span&gt;&lt;span style=&quot;border-color: var(--border-color); font-size: 16px; font-style: normal; font-variant-ligatures: normal; font-variant-caps: normal; font-weight: 400; letter-spacing: normal; orphans: 2; text-align: left; text-indent: 0px; text-transform: none; widows: 2; word-spacing: 0px; -webkit-text-stroke-width: 0px; text-decoration-thickness: initial; text-decoration-style: initial; text-decoration-color: initial; font-family: &amp;quot;Courier New&amp;quot;; color: rgb(188, 96, 96);&quot; lang=&quot;EN-US&quot;&gt;$http_referer&lt;/span&gt;&lt;span style=&quot;border-color: var(--border-color); font-size: 16px; font-style: normal; font-variant-ligatures: normal; font-variant-caps: normal; font-weight: 400; letter-spacing: normal; orphans: 2; text-align: left; text-indent: 0px; text-transform: none; widows: 2; word-spacing: 0px; -webkit-text-stroke-width: 0px; text-decoration-thickness: initial; text-decoration-style: initial; text-decoration-color: initial; font-family: &amp;quot;Courier New&amp;quot;; color: rgb(136, 0, 0);&quot; lang=&quot;EN-US&quot;&gt;&quot; &#39;&lt;/span&gt;&lt;span style=&quot;border-color: var(--border-color); font-size: 16px; font-style: normal; font-variant-ligatures: normal; font-variant-caps: normal; font-weight: 400; letter-spacing: normal; orphans: 2; text-align: left; text-indent: 0px; text-transform: none; widows: 2; word-spacing: 0px; -webkit-text-stroke-width: 0px; text-decoration-thickness: initial; text-decoration-style: initial; text-decoration-color: initial; font-family: &amp;quot;Courier New&amp;quot;; color: rgb(68, 68, 68);&quot; lang=&quot;EN-US&quot;&gt;&lt;br style=&quot;border-color: var(--border-color);&quot;&gt;&lt;span style=&quot;border-color: var(--border-color);&quot;&gt;&amp;nbsp;&amp;nbsp;&amp;nbsp;&amp;nbsp;&amp;nbsp;&amp;nbsp;&amp;nbsp;&amp;nbsp;&amp;nbsp;&amp;nbsp;&amp;nbsp;&amp;nbsp;&amp;nbsp;&amp;nbsp;&amp;nbsp;&amp;nbsp;&amp;nbsp;&amp;nbsp;&amp;nbsp;&amp;nbsp;&amp;nbsp;&lt;span&gt;&amp;nbsp;&lt;/span&gt;&lt;/span&gt;&lt;/span&gt;&lt;span style=&quot;border-color: var(--border-color); font-size: 16px; font-style: normal; font-variant-ligatures: normal; font-variant-caps: normal; font-weight: 400; letter-spacing: normal; orphans: 2; text-align: left; text-indent: 0px; text-transform: none; widows: 2; word-spacing: 0px; -webkit-text-stroke-width: 0px; text-decoration-thickness: initial; text-decoration-style: initial; text-decoration-color: initial; font-family: &amp;quot;Courier New&amp;quot;; color: rgb(136, 0, 0);&quot; lang=&quot;EN-US&quot;&gt;&#39;&quot;&lt;/span&gt;&lt;span style=&quot;border-color: var(--border-color); font-size: 16px; font-style: normal; font-variant-ligatures: normal; font-variant-caps: normal; font-weight: 400; letter-spacing: normal; orphans: 2; text-align: left; text-indent: 0px; text-transform: none; widows: 2; word-spacing: 0px; -webkit-text-stroke-width: 0px; text-decoration-thickness: initial; text-decoration-style: initial; text-decoration-color: initial; font-family: &amp;quot;Courier New&amp;quot;; color: rgb(188, 96, 96);&quot; lang=&quot;EN-US&quot;&gt;$http_user_agent&lt;/span&gt;&lt;span style=&quot;border-color: var(--border-color); font-size: 16px; font-style: normal; font-variant-ligatures: normal; font-variant-caps: normal; font-weight: 400; letter-spacing: normal; orphans: 2; text-align: left; text-indent: 0px; text-transform: none; widows: 2; word-spacing: 0px; -webkit-text-stroke-width: 0px; text-decoration-thickness: initial; text-decoration-style: initial; text-decoration-color: initial; font-family: &amp;quot;Courier New&amp;quot;; color: rgb(136, 0, 0);&quot; lang=&quot;EN-US&quot;&gt;&quot; &quot;&lt;/span&gt;&lt;span style=&quot;border-color: var(--border-color); font-size: 16px; font-style: normal; font-variant-ligatures: normal; font-variant-caps: normal; font-weight: 400; letter-spacing: normal; orphans: 2; text-align: left; text-indent: 0px; text-transform: none; widows: 2; word-spacing: 0px; -webkit-text-stroke-width: 0px; text-decoration-thickness: initial; text-decoration-style: initial; text-decoration-color: initial; font-family: &amp;quot;Courier New&amp;quot;; color: rgb(188, 96, 96);&quot; lang=&quot;EN-US&quot;&gt;$http_x_forwarded_for&lt;/span&gt;&lt;span style=&quot;border-color: var(--border-color); font-size: 16px; font-style: normal; font-variant-ligatures: normal; font-variant-caps: normal; font-weight: 400; letter-spacing: normal; orphans: 2; text-align: left; text-indent: 0px; text-transform: none; widows: 2; word-spacing: 0px; -webkit-text-stroke-width: 0px; text-decoration-thickness: initial; text-decoration-style: initial; text-decoration-color: initial; font-family: &amp;quot;Courier New&amp;quot;; color: rgb(136, 0, 0);&quot; lang=&quot;EN-US&quot;&gt;&quot;&#39;&lt;/span&gt;&lt;span style=&quot;border-color: var(--border-color); font-size: 16px; font-style: normal; font-variant-ligatures: normal; font-variant-caps: normal; font-weight: 400; letter-spacing: normal; orphans: 2; text-align: left; text-indent: 0px; text-transform: none; widows: 2; word-spacing: 0px; -webkit-text-stroke-width: 0px; text-decoration-thickness: initial; text-decoration-style: initial; text-decoration-color: initial; font-family: &amp;quot;Courier New&amp;quot;; color: rgb(68, 68, 68);&quot; lang=&quot;EN-US&quot;&gt;;&lt;br style=&quot;border-color: var(--border-color);&quot;&gt;&lt;span style=&quot;border-color: var(--border-color);&quot;&gt;&amp;nbsp;&amp;nbsp;&amp;nbsp;&lt;span&gt;&amp;nbsp;&lt;/span&gt;&lt;/span&gt;&lt;b style=&quot;border-color: var(--border-color);&quot;&gt;access_log&amp;nbsp;&amp;nbsp;&lt;/b&gt;/var/log/nginx/access.log&lt;span style=&quot;border-color: var(--border-color);&quot;&gt;&amp;nbsp;&lt;span&gt;&amp;nbsp;&lt;/span&gt;&lt;/span&gt;main;&lt;br style=&quot;border-color: var(--border-color);&quot;&gt;&lt;span style=&quot;border-color: var(--border-color);&quot;&gt;&amp;nbsp;&amp;nbsp;&amp;nbsp;&lt;span&gt;&amp;nbsp;&lt;/span&gt;&lt;/span&gt;&lt;b style=&quot;border-color: var(--border-color);&quot;&gt;sendfile&amp;nbsp;&amp;nbsp;&lt;/b&gt;&lt;/span&gt;&lt;span style=&quot;border-color: var(--border-color); font-size: 16px; font-style: normal; font-variant-ligatures: normal; font-variant-caps: normal; font-weight: 400; letter-spacing: normal; orphans: 2; text-align: left; text-indent: 0px; text-transform: none; widows: 2; word-spacing: 0px; -webkit-text-stroke-width: 0px; text-decoration-thickness: initial; text-decoration-style: initial; text-decoration-color: initial; font-family: &amp;quot;Courier New&amp;quot;; color: rgb(120, 169, 96);&quot; lang=&quot;EN-US&quot;&gt;on&lt;/span&gt;&lt;span style=&quot;border-color: var(--border-color); font-size: 16px; font-style: normal; font-variant-ligatures: normal; font-variant-caps: normal; font-weight: 400; letter-spacing: normal; orphans: 2; text-align: left; text-indent: 0px; text-transform: none; widows: 2; word-spacing: 0px; -webkit-text-stroke-width: 0px; text-decoration-thickness: initial; text-decoration-style: initial; text-decoration-color: initial; font-family: &amp;quot;Courier New&amp;quot;; color: rgb(68, 68, 68);&quot; lang=&quot;EN-US&quot;&gt;;&lt;br style=&quot;border-color: var(--border-color);&quot;&gt;&lt;span style=&quot;border-color: var(--border-color);&quot;&gt;&amp;nbsp;&amp;nbsp;&amp;nbsp;&lt;span&gt;&amp;nbsp;&lt;/span&gt;&lt;/span&gt;&lt;b style=&quot;border-color: var(--border-color);&quot;&gt;keepalive_timeout&lt;/b&gt;&lt;span style=&quot;border-color: var(--border-color);&quot;&gt;&amp;nbsp;&lt;span&gt;&amp;nbsp;&lt;/span&gt;&lt;/span&gt;&lt;/span&gt;&lt;span style=&quot;border-color: var(--border-color); font-family: Helvetica; font-size: 16px; font-style: normal; font-variant-ligatures: normal; font-variant-caps: normal; font-weight: 400; letter-spacing: normal; orphans: 2; text-align: left; text-indent: 0px; text-transform: none; widows: 2; word-spacing: 0px; -webkit-text-stroke-width: 0px; text-decoration-thickness: initial; text-decoration-style: initial; text-decoration-color: initial; color: rgb(136, 0, 0);&quot; lang=&quot;EN-US&quot;&gt;65&lt;/span&gt;&lt;span style=&quot;border-color: var(--border-color); color: rgb(0, 0, 0); font-size: 16px; font-style: normal; font-variant-ligatures: normal; font-variant-caps: normal; font-weight: 400; letter-spacing: normal; orphans: 2; text-align: left; text-indent: 0px; text-transform: none; widows: 2; word-spacing: 0px; -webkit-text-stroke-width: 0px; text-decoration-thickness: initial; text-decoration-style: initial; text-decoration-color: initial; font-family: &amp;quot;Courier New&amp;quot;;&quot; lang=&quot;EN-US&quot;&gt;;&lt;/span&gt;&lt;span style=&quot;border-color: var(--border-color); font-size: 16px; font-style: normal; font-variant-ligatures: normal; font-variant-caps: normal; font-weight: 400; letter-spacing: normal; orphans: 2; text-align: left; text-indent: 0px; text-transform: none; widows: 2; word-spacing: 0px; -webkit-text-stroke-width: 0px; text-decoration-thickness: initial; text-decoration-style: initial; text-decoration-color: initial; font-family: &amp;quot;Courier New&amp;quot;; color: rgb(68, 68, 68);&quot; lang=&quot;EN-US&quot;&gt;&lt;br style=&quot;border-color: var(--border-color);&quot;&gt;&lt;br style=&quot;border-color: var(--border-color);&quot;&gt;&lt;span style=&quot;border-color: var(--border-color);&quot;&gt;&amp;nbsp;&amp;nbsp;&amp;nbsp;&lt;span&gt;&amp;nbsp;&lt;/span&gt;&lt;/span&gt;&lt;b style=&quot;border-color: var(--border-color);&quot;&gt;include&amp;nbsp;&amp;nbsp;&lt;/b&gt;/etc/nginx/conf.d/&lt;/span&gt;&lt;span style=&quot;border-color: var(--border-color); color: rgb(0, 0, 0); font-size: 16px; font-style: normal; font-variant-ligatures: normal; font-variant-caps: normal; font-weight: 400; letter-spacing: normal; orphans: 2; text-align: left; text-indent: 0px; text-transform: none; widows: 2; word-spacing: 0px; -webkit-text-stroke-width: 0px; text-decoration-thickness: initial; text-decoration-style: initial; text-decoration-color: initial; font-family: &amp;quot;Courier New&amp;quot;;&quot; lang=&quot;EN-US&quot;&gt;*.conf&lt;/span&gt;&lt;span style=&quot;border-color: var(--border-color); color: rgb(0, 0, 0); font-size: 16px; font-style: normal; font-variant-ligatures: normal; font-variant-caps: normal; font-weight: 400; letter-spacing: normal; orphans: 2; text-align: left; text-indent: 0px; text-transform: none; widows: 2; word-spacing: 0px; -webkit-text-stroke-width: 0px; text-decoration-thickness: initial; text-decoration-style: initial; text-decoration-color: initial; font-family: &amp;quot;Courier New&amp;quot;;&quot; lang=&quot;EN-US&quot;&gt;;&lt;br style=&quot;border-color: var(--border-color);&quot;&gt;}&lt;/span&gt;" style="text;whiteSpace=wrap;html=1;fontSize=16;" vertex="1" parent="1">
          <mxGeometry x="605" y="490" width="750" height="470" as="geometry" />
        </mxCell>
        <mxCell id="0nwP4JBlI1utq1KSn3Qp-9" value="main block" style="rounded=0;whiteSpace=wrap;html=1;fontSize=18;fillColor=none;align=left;verticalAlign=top;strokeColor=#FF0000;fontStyle=1;fontColor=#FF0000;strokeWidth=2;" parent="1" vertex="1">
          <mxGeometry x="590" y="470" width="780" height="510" as="geometry" />
        </mxCell>
        <mxCell id="0nwP4JBlI1utq1KSn3Qp-10" value="events block" style="rounded=0;whiteSpace=wrap;html=1;fontSize=18;fillColor=none;align=left;verticalAlign=top;strokeColor=#007FFF;fontColor=#007FFF;fontStyle=1;strokeWidth=2;" parent="1" vertex="1">
          <mxGeometry x="600" y="590" width="760" height="90" as="geometry" />
        </mxCell>
        <mxCell id="0nwP4JBlI1utq1KSn3Qp-11" value="http block" style="rounded=0;whiteSpace=wrap;html=1;fontSize=18;fillColor=none;align=left;verticalAlign=top;fontStyle=1;strokeColor=#00CC00;strokeWidth=2;fontColor=#00CC00;" parent="1" vertex="1">
          <mxGeometry x="600" y="690" width="760" height="280" as="geometry" />
        </mxCell>
      </root>
    </mxGraphModel>
  </diagram>
  <diagram id="01BovkTYlZ0-bQckT6xI" name="第 2 页">
    <mxGraphModel dx="466" dy="1171" grid="0" gridSize="10" guides="1" tooltips="1" connect="1" arrows="1" fold="1" page="0" pageScale="1" pageWidth="3300" pageHeight="4681" math="0" shadow="0">
      <root>
        <mxCell id="0" />
        <mxCell id="1" parent="0" />
        <mxCell id="_JgKVgctREpwWMBxi5a4-4" value="" style="rounded=1;whiteSpace=wrap;html=1;fontSize=16;fillColor=#f0f0f0;arcSize=1;strokeColor=none;" vertex="1" parent="1">
          <mxGeometry x="1179" y="-121" width="451" height="271" as="geometry" />
        </mxCell>
        <mxCell id="_JgKVgctREpwWMBxi5a4-1" value="server block" style="rounded=0;whiteSpace=wrap;html=1;fontSize=18;fillColor=none;align=left;verticalAlign=top;fontStyle=1;fontColor=#FF8000;strokeColor=#FF8000;strokeWidth=2;" vertex="1" parent="1">
          <mxGeometry x="1190" y="-110" width="430" height="250" as="geometry" />
        </mxCell>
        <mxCell id="_JgKVgctREpwWMBxi5a4-2" value="location block" style="rounded=0;whiteSpace=wrap;html=1;fontSize=16;fillColor=none;align=left;verticalAlign=top;strokeWidth=2;fontStyle=1;fontColor=#9933FF;strokeColor=#9933FF;" vertex="1" parent="1">
          <mxGeometry x="1199.5" width="410.5" height="110" as="geometry" />
        </mxCell>
        <mxCell id="_JgKVgctREpwWMBxi5a4-3" value="&lt;span style=&quot;border-color: var(--border-color); color: rgb(0, 0, 0); font-size: 16px; font-style: normal; font-variant-ligatures: normal; font-variant-caps: normal; font-weight: 400; letter-spacing: normal; orphans: 2; text-indent: 0px; text-transform: none; widows: 2; word-spacing: 0px; -webkit-text-stroke-width: 0px; text-decoration-thickness: initial; text-decoration-style: initial; text-decoration-color: initial; font-family: &amp;quot;Courier New&amp;quot;;&quot; lang=&quot;EN-US&quot;&gt;&lt;br style=&quot;border-color: var(--border-color);&quot;&gt;&lt;/span&gt;&lt;b style=&quot;border-color: var(--border-color); color: rgb(0, 0, 0); font-family: Helvetica; font-size: 16px; font-style: normal; font-variant-ligatures: normal; font-variant-caps: normal; letter-spacing: normal; orphans: 2; text-indent: 0px; text-transform: none; widows: 2; word-spacing: 0px; -webkit-text-stroke-width: 0px; text-decoration-thickness: initial; text-decoration-style: initial; text-decoration-color: initial;&quot;&gt;&lt;span style=&quot;border-color: var(--border-color); font-family: &amp;quot;Courier New&amp;quot;; color: rgb(136, 0, 0);&quot; lang=&quot;EN-US&quot;&gt;server&lt;/span&gt;&lt;/b&gt;&lt;span style=&quot;border-color: var(--border-color); font-size: 16px; font-style: normal; font-variant-ligatures: normal; font-variant-caps: normal; font-weight: 400; letter-spacing: normal; orphans: 2; text-indent: 0px; text-transform: none; widows: 2; word-spacing: 0px; -webkit-text-stroke-width: 0px; text-decoration-thickness: initial; text-decoration-style: initial; text-decoration-color: initial; font-family: &amp;quot;Courier New&amp;quot;; color: rgb(68, 68, 68);&quot; lang=&quot;EN-US&quot;&gt;&lt;span&gt;&amp;nbsp;&lt;/span&gt;{&lt;br style=&quot;border-color: var(--border-color);&quot;&gt;&lt;span style=&quot;border-color: var(--border-color);&quot;&gt;&amp;nbsp; &amp;nbsp;&lt;span&gt;&amp;nbsp;&lt;/span&gt;&lt;/span&gt;&lt;b style=&quot;border-color: var(--border-color);&quot;&gt;listen&amp;nbsp;&amp;nbsp;&lt;/b&gt;&lt;/span&gt;&lt;span style=&quot;border-color: var(--border-color); font-size: 16px; font-style: normal; font-variant-ligatures: normal; font-variant-caps: normal; font-weight: 400; letter-spacing: normal; orphans: 2; text-indent: 0px; text-transform: none; widows: 2; word-spacing: 0px; -webkit-text-stroke-width: 0px; text-decoration-thickness: initial; text-decoration-style: initial; text-decoration-color: initial; font-family: &amp;quot;Courier New&amp;quot;; color: rgb(136, 0, 0);&quot; lang=&quot;EN-US&quot;&gt;80&lt;/span&gt;&lt;span style=&quot;border-color: var(--border-color); font-size: 16px; font-style: normal; font-variant-ligatures: normal; font-variant-caps: normal; font-weight: 400; letter-spacing: normal; orphans: 2; text-indent: 0px; text-transform: none; widows: 2; word-spacing: 0px; -webkit-text-stroke-width: 0px; text-decoration-thickness: initial; text-decoration-style: initial; text-decoration-color: initial; font-family: &amp;quot;Courier New&amp;quot;; color: rgb(68, 68, 68);&quot; lang=&quot;EN-US&quot;&gt;;&lt;br style=&quot;border-color: var(--border-color);&quot;&gt;&lt;span style=&quot;border-color: var(--border-color);&quot;&gt;&amp;nbsp; &amp;nbsp;&lt;span&gt;&amp;nbsp;&lt;/span&gt;&lt;/span&gt;&lt;b style=&quot;border-color: var(--border-color);&quot;&gt;server_name&amp;nbsp;&amp;nbsp;&lt;/b&gt;localhost;&lt;br style=&quot;border-color: var(--border-color);&quot;&gt;&lt;br style=&quot;border-color: var(--border-color);&quot;&gt;&lt;br style=&quot;border-color: var(--border-color);&quot;&gt;&amp;nbsp; &amp;nbsp;&amp;nbsp;&lt;b style=&quot;border-color: var(--border-color);&quot;&gt;location&lt;/b&gt;&amp;nbsp;/ {&lt;br style=&quot;border-color: var(--border-color);&quot;&gt;&lt;span style=&quot;border-color: var(--border-color);&quot;&gt;&amp;nbsp; &amp;nbsp; &amp;nbsp; &amp;nbsp;&amp;nbsp;&lt;/span&gt;&lt;b style=&quot;border-color: var(--border-color);&quot;&gt;root&amp;nbsp;&amp;nbsp;&lt;/b&gt;/usr/share/nginx/html;&lt;br style=&quot;border-color: var(--border-color);&quot;&gt;&lt;span style=&quot;border-color: var(--border-color);&quot;&gt;&amp;nbsp; &amp;nbsp; &amp;nbsp; &amp;nbsp;&amp;nbsp;&lt;/span&gt;&lt;b style=&quot;border-color: var(--border-color);&quot;&gt;index&amp;nbsp;&amp;nbsp;&lt;/b&gt;index.html;&lt;br style=&quot;border-color: var(--border-color);&quot;&gt;&lt;span style=&quot;border-color: var(--border-color);&quot;&gt;&amp;nbsp; &amp;nbsp;&amp;nbsp;&lt;/span&gt;}&lt;br style=&quot;border-color: var(--border-color);&quot;&gt;}&lt;/span&gt;" style="text;whiteSpace=wrap;html=1;fontSize=16;align=left;" vertex="1" parent="1">
          <mxGeometry x="1199.5" y="-100" width="410" height="250" as="geometry" />
        </mxCell>
      </root>
    </mxGraphModel>
  </diagram>
</mxfile>
